<svg width="215" height="215" viewBox="0 0 215 215" fill="none" xmlns="http://www.w3.org/2000/svg">
<path d="M106.963 107.5H194.306" stroke="white" stroke-width="12" stroke-linecap="round" stroke-linejoin="round"/>
<path d="M160.78 167.969V188.125H53.2797V26.875H160.78V47.0312H174.217V20.1562C174.217 18.3743 173.509 16.6654 172.249 15.4054C170.989 14.1454 169.28 13.4375 167.498 13.4375H46.5609C44.779 13.4375 43.0701 14.1454 41.81 15.4054C40.55 16.6654 39.8422 18.3743 39.8422 20.1562V194.844C39.8422 196.626 40.55 198.335 41.81 199.595C43.0701 200.855 44.779 201.562 46.5609 201.562H167.498C169.28 201.562 170.989 200.855 172.249 199.595C173.509 198.335 174.217 196.626 174.217 194.844V167.969H160.78Z" fill="white"/>
<path d="M194.306 107.5L167.431 134.375" stroke="white" stroke-width="12" stroke-linecap="round" stroke-linejoin="round"/>
<path d="M194.306 107.5L167.431 80.625" stroke="white" stroke-width="12" stroke-linecap="round" stroke-linejoin="round"/>
<path d="M167.431 54.3547V40.9172" stroke="white" stroke-width="12" stroke-linecap="round" stroke-linejoin="round"/>
<path d="M167.431 174.688V161.25" stroke="white" stroke-width="12" stroke-linecap="round" stroke-linejoin="round"/>
</svg>
